<svg width="209" height="47" viewBox="0 0 209 47" fill="none" xmlns="http://www.w3.org/2000/svg">
<path d="M87.988 36V10.8H98.896C101.152 10.8 103.096 11.172 104.728 11.916C106.36 12.636 107.62 13.68 108.508 15.048C109.396 16.416 109.84 18.048 109.84 19.944C109.84 21.816 109.396 23.436 108.508 24.804C107.62 26.148 106.36 27.18 104.728 27.9C103.096 28.62 101.152 28.98 98.896 28.98H91.228L93.82 26.424V36H87.988ZM104.008 36L97.708 26.856H103.936L110.308 36H104.008ZM93.82 27.072L91.228 24.336H98.572C100.372 24.336 101.716 23.952 102.604 23.184C103.492 22.392 103.936 21.312 103.936 19.944C103.936 18.552 103.492 17.472 102.604 16.704C101.716 15.936 100.372 15.552 98.572 15.552H91.228L93.82 12.78V27.072ZM125.657 36.432C122.081 36.432 119.285 35.436 117.269 33.444C115.253 31.452 114.245 28.608 114.245 24.912V10.8H120.077V24.696C120.077 27.096 120.569 28.824 121.553 29.88C122.537 30.936 123.917 31.464 125.693 31.464C127.469 31.464 128.849 30.936 129.833 29.88C130.817 28.824 131.309 27.096 131.309 24.696V10.8H137.069V24.912C137.069 28.608 136.061 31.452 134.045 33.444C132.029 35.436 129.233 36.432 125.657 36.432ZM153.884 36.288C152.252 36.288 150.824 35.928 149.6 35.208C148.376 34.488 147.416 33.396 146.72 31.932C146.048 30.444 145.712 28.572 145.712 26.316C145.712 24.036 146.036 22.164 146.684 20.7C147.332 19.236 148.268 18.144 149.492 17.424C150.716 16.704 152.18 16.344 153.884 16.344C155.708 16.344 157.34 16.764 158.78 17.604C160.244 18.42 161.396 19.572 162.236 21.06C163.1 22.548 163.532 24.3 163.532 26.316C163.532 28.356 163.1 30.12 162.236 31.608C161.396 33.096 160.244 34.248 158.78 35.064C157.34 35.88 155.708 36.288 153.884 36.288ZM142.436 42.984V16.632H147.8V20.592L147.692 26.352L148.052 32.076V42.984H142.436ZM152.912 31.68C153.848 31.68 154.676 31.464 155.396 31.032C156.14 30.6 156.728 29.988 157.16 29.196C157.616 28.38 157.844 27.42 157.844 26.316C157.844 25.188 157.616 24.228 157.16 23.436C156.728 22.644 156.14 22.032 155.396 21.6C154.676 21.168 153.848 20.952 152.912 20.952C151.976 20.952 151.136 21.168 150.392 21.6C149.648 22.032 149.06 22.644 148.628 23.436C148.196 24.228 147.98 25.188 147.98 26.316C147.98 27.42 148.196 28.38 148.628 29.196C149.06 29.988 149.648 30.6 150.392 31.032C151.136 31.464 151.976 31.68 152.912 31.68ZM178.855 36V32.22L178.495 31.392V24.624C178.495 23.424 178.123 22.488 177.379 21.816C176.659 21.144 175.543 20.808 174.031 20.808C172.999 20.808 171.979 20.976 170.971 21.312C169.987 21.624 169.147 22.056 168.451 22.608L166.435 18.684C167.491 17.94 168.763 17.364 170.251 16.956C171.739 16.548 173.251 16.344 174.787 16.344C177.739 16.344 180.031 17.04 181.663 18.432C183.295 19.824 184.111 21.996 184.111 24.948V36H178.855ZM172.951 36.288C171.439 36.288 170.143 36.036 169.063 35.532C167.983 35.004 167.155 34.296 166.579 33.408C166.003 32.52 165.715 31.524 165.715 30.42C165.715 29.268 165.991 28.26 166.543 27.396C167.119 26.532 168.019 25.86 169.243 25.38C170.467 24.876 172.063 24.624 174.031 24.624H179.179V27.9H174.643C173.323 27.9 172.411 28.116 171.907 28.548C171.427 28.98 171.187 29.52 171.187 30.168C171.187 30.888 171.463 31.464 172.015 31.896C172.591 32.304 173.371 32.508 174.355 32.508C175.291 32.508 176.131 32.292 176.875 31.86C177.619 31.404 178.159 30.744 178.495 29.88L179.359 32.472C178.951 33.72 178.207 34.668 177.127 35.316C176.047 35.964 174.655 36.288 172.951 36.288ZM191.29 43.272C190.282 43.272 189.286 43.116 188.302 42.804C187.318 42.492 186.514 42.06 185.89 41.508L187.942 37.512C188.374 37.896 188.866 38.196 189.418 38.412C189.994 38.628 190.558 38.736 191.11 38.736C191.902 38.736 192.526 38.544 192.982 38.16C193.462 37.8 193.894 37.188 194.278 36.324L195.286 33.948L195.718 33.336L202.666 16.632H208.066L199.318 37.188C198.694 38.748 197.974 39.972 197.158 40.86C196.366 41.748 195.478 42.372 194.494 42.732C193.534 43.092 192.466 43.272 191.29 43.272ZM194.602 36.756L185.962 16.632H191.758L198.454 32.832L194.602 36.756Z" fill="black"/>
<path d="M21.7023 18.9281C23.0268 18.9281 24.8634 19.2564 26.0966 18.7165C28.0618 17.8561 28.368 15.1738 26.644 13.9081C25.7257 13.2338 24.7112 13.0814 23.6812 13.1401C21.278 13.1401 18.7333 13.2678 16.3466 13.2678C14.8977 13.2678 13.5105 13.3923 12.559 14.6489C12.0057 15.3795 12.0895 16.2668 12.0895 17.1334V22.1034C12.0895 24.1364 11.4694 27.1022 13.1888 28.561C14.592 29.7519 16.7917 29.0271 17.4254 27.3496C17.8881 26.1246 17.6661 24.2145 17.6661 22.9174C19.108 24.1599 20.7542 26.0337 22.0874 27.3766C26.0369 31.3547 32.3846 35.8438 29.4871 42.2597C29.1096 43.0953 28.5974 43.8901 27.9591 44.548C27.1075 45.4256 26.1356 46.0504 24.9982 46.4808C18.914 48.7823 14.6561 42.9117 10.9292 39.0729C6.52554 34.5369 -0.297821 30.0027 0.0100632 22.9317C0.223473 18.0342 3.90959 14.8743 7.13471 11.6906C11.9427 6.94408 16.5478 0.111514 24.1742 1.40607C25.2588 1.59024 26.3495 1.97556 27.3327 2.47298C29.1322 3.38346 30.4785 4.95095 31.8748 6.36493C33.903 8.4188 35.9939 10.415 37.9913 12.4985C39.2519 13.8135 41.7843 15.4694 42.4746 17.157C42.7717 17.8831 42.576 18.9821 42.576 19.7564C42.576 22.0652 42.1092 24.9877 42.8027 27.2115C43.526 29.5303 46.5052 29.7916 47.8214 27.9012C48.6976 26.6428 48.3586 24.5809 48.3586 23.1245C49.2512 23.8838 50.086 24.7773 50.8856 25.5548C52.7018 27.3206 54.5536 29.1004 56.2959 30.9375C57.2346 31.9275 58.2399 33.3332 59.6045 33.7293C61.9106 34.3985 63.8847 31.57 62.6788 29.5605C62.1362 28.6564 61.2297 28.0122 60.5199 27.2524C57.9465 24.4979 54.6252 22.0131 52.4635 18.9281C53.8648 18.9281 55.9082 19.314 57.1321 18.5181C59.2179 17.1615 58.7231 14.2005 56.446 13.4011C54.4582 12.7034 51.408 13.2678 49.305 13.2678C48.568 13.2678 47.2353 13.525 46.6227 13.0465C45.7529 12.3671 45.274 10.8552 45.0499 9.81635C44.182 5.79393 46.4938 1.43258 50.5409 0.312248C56.4807 -1.33187 60.1468 3.87287 63.8616 7.60744C68.6108 12.3819 75.4873 17.0784 74.9727 24.5884C74.6652 29.0775 71.2001 31.983 68.2561 34.9427C62.7924 40.4354 56.6389 48.8518 47.9317 44.5915C45.856 43.5759 44.3189 41.803 42.7133 40.1888L35.7096 33.1479L26.5088 23.8981C24.9354 22.3164 22.9826 20.7554 21.7023 18.9281Z" fill="black"/>
</svg>
